<svg width="247" height="95" viewBox="0 0 247 95" fill="none" xmlns="http://www.w3.org/2000/svg">
<path d="M40.875 72C40.875 75.0833 40.375 78 39.375 80.75C38.375 83.5 36.9375 85.9167 35.0625 88C33.2292 90.0417 31 91.6667 28.375 92.875C25.75 94.125 22.8333 94.75 19.625 94.75C16.7917 94.75 14.1667 94.2917 11.75 93.375C9.375 92.5 7.3125 91.25 5.5625 89.625C3.8125 88 2.4375 86.0208 1.4375 83.6875C0.479167 81.3542 0 78.75 0 75.875C0 75.2917 0.0208333 74.5625 0.0625 73.6875C0.104167 72.8125 0.229167 71.9792 0.4375 71.1875C0.6875 70.3542 1.02083 69.6667 1.4375 69.125C1.89583 68.5417 2.54167 68.25 3.375 68.25C4.04167 68.25 4.77083 68.3958 5.5625 68.6875C6.39583 68.9375 7.16667 69.2917 7.875 69.75C8.58333 70.2083 9.16667 70.7708 9.625 71.4375C10.125 72.0625 10.375 72.75 10.375 73.5V77.125C10.375 80 11.1458 82.3542 12.6875 84.1875C14.2708 85.9792 16.5417 86.875 19.5 86.875C21.5833 86.875 23.375 86.3958 24.875 85.4375C26.375 84.4792 27.5833 83.25 28.5 81.75C29.4583 80.25 30.1458 78.5833 30.5625 76.75C31.0208 74.875 31.25 73.0417 31.25 71.25C31.25 67.75 30.5208 64.3542 29.0625 61.0625C27.6458 57.7708 25.8542 54.5625 23.6875 51.4375C21.5208 48.2708 19.1667 45.1667 16.625 42.125C14.0833 39.0833 11.7292 36.0625 9.5625 33.0625C7.39583 30.0625 5.58333 27.0625 4.125 24.0625C2.70833 21.0625 2 18 2 14.875C2 12.3333 2.5 10.1458 3.5 8.3125C4.54167 6.4375 5.89583 4.91667 7.5625 3.75C9.27083 2.54167 11.1875 1.66667 13.3125 1.125C15.4792 0.541667 17.7083 0.25 20 0.25C22.7917 0.25 25.2917 0.645833 27.5 1.4375C29.7083 2.22917 31.5833 3.375 33.125 4.875C34.6667 6.375 35.8333 8.22917 36.625 10.4375C37.4583 12.6042 37.875 15.0833 37.875 17.875C37.875 18.2917 37.8542 18.8125 37.8125 19.4375C37.7708 20.0625 37.6667 20.6875 37.5 21.3125C37.3333 21.8958 37.0833 22.4167 36.75 22.875C36.4167 23.2917 35.9583 23.5 35.375 23.5C34.5417 23.5 33.7083 23.2917 32.875 22.875C32.1667 22.5 31.5833 22.1458 31.125 21.8125C30.7083 21.4375 30.375 21.0417 30.125 20.625C29.875 20.1667 29.6875 19.6667 29.5625 19.125C29.4375 18.5833 29.3333 17.9167 29.25 17.125C29.0417 15.625 28.7708 14.2708 28.4375 13.0625C28.1042 11.8542 27.6042 10.8333 26.9375 10C26.2708 9.16667 25.3958 8.52083 24.3125 8.0625C23.2292 7.60417 21.8333 7.375 20.125 7.375C18.9167 7.375 17.75 7.5 16.625 7.75C15.5417 8 14.5833 8.41667 13.75 9C12.9583 9.58333 12.3125 10.3542 11.8125 11.3125C11.3542 12.2292 11.125 13.375 11.125 14.75C11.125 16.6667 11.5417 18.625 12.375 20.625C13.25 22.625 14.375 24.6667 15.75 26.75C17.1667 28.8333 18.75 30.9792 20.5 33.1875C22.2917 35.3542 24.125 37.6042 26 39.9375C27.875 42.2708 29.6875 44.6875 31.4375 47.1875C33.2292 49.6458 34.8125 52.2083 36.1875 54.875C37.6042 57.5417 38.7292 60.3125 39.5625 63.1875C40.4375 66.0208 40.875 68.9583 40.875 72ZM95.1875 43.125C95.1875 45 94.7083 46.3333 93.75 47.125C92.7917 47.875 91.4375 48.4167 89.6875 48.75C90.0625 55.1667 90.2917 61.5417 90.375 67.875C90.5 74.2083 90.5625 80.5833 90.5625 87C90.5625 88 90.3542 88.7708 89.9375 89.3125C89.5208 89.8542 88.7708 90.125 87.6875 90.125C86.7708 90.125 85.8542 90.0208 84.9375 89.8125C84.0625 89.6042 83.2708 89.2917 82.5625 88.875C81.8542 88.4167 81.2708 87.8333 80.8125 87.125C80.3958 86.375 80.1875 85.4583 80.1875 84.375V64.875C80.1875 62.4167 80.1875 59.9583 80.1875 57.5C80.1875 55.0417 80.1458 52.5833 80.0625 50.125C76.4792 50.625 72.8958 51.0625 69.3125 51.4375C65.7292 51.7708 62.1458 52 58.5625 52.125C58.6875 61 58.9375 69.875 59.3125 78.75C59.4375 80.5833 59.5625 82.375 59.6875 84.125C59.8542 85.875 59.9375 87.625 59.9375 89.375C59.9375 90.2083 59.7083 90.8333 59.25 91.25C58.7917 91.6667 58.1458 91.875 57.3125 91.875C56.6875 91.875 56.0208 91.8333 55.3125 91.75C54.6042 91.625 53.8958 91.4375 53.1875 91.1875C52.5208 90.9375 51.8958 90.625 51.3125 90.25C50.7292 89.875 50.2708 89.4167 49.9375 88.875C49.8125 88.6667 49.7083 88.0417 49.625 87C49.5417 85.9583 49.4583 84.6458 49.375 83.0625C49.3333 81.4792 49.2917 79.6875 49.25 77.6875C49.2083 75.6875 49.1875 73.625 49.1875 71.5C49.1875 69.375 49.1875 67.2917 49.1875 65.25C49.1875 63.1667 49.1875 61.25 49.1875 59.5C49.1875 57.75 49.1875 56.2292 49.1875 54.9375C49.1875 53.6458 49.1875 52.75 49.1875 52.25C48.6042 52.25 48.0833 52.125 47.625 51.875C47.1667 51.5833 46.9375 51.125 46.9375 50.5C46.9375 49.75 47.1458 49.0417 47.5625 48.375C48.0208 47.6667 48.5625 47.0833 49.1875 46.625V8.875C49.1875 8.04167 49.3333 7.375 49.625 6.875C49.9583 6.375 50.5625 6.125 51.4375 6.125C52.8542 6.125 53.9792 6.33333 54.8125 6.75C55.6875 7.16667 56.3333 7.75 56.75 8.5C57.2083 9.20833 57.5 10.0833 57.625 11.125C57.7917 12.125 57.8958 13.2083 57.9375 14.375C58.0625 19.4583 58.1458 24.5417 58.1875 29.625C58.2292 34.7083 58.3125 39.7917 58.4375 44.875C62.0208 44.5417 65.5833 44.2083 69.125 43.875C72.6667 43.5 76.2292 42.9583 79.8125 42.25C79.6042 37.8333 79.3333 33.4583 79 29.125C78.7083 24.7917 78.2708 20.4167 77.6875 16C77.3542 13.9167 76.9583 11.8542 76.5 9.8125C76.0417 7.72917 75.8125 5.625 75.8125 3.5C75.8125 2.75 76.0833 2.27083 76.625 2.0625C77.2083 1.85417 77.8125 1.75 78.4375 1.75C79.4375 1.75 80.4375 1.91667 81.4375 2.25C82.4792 2.58333 83.3125 3.16667 83.9375 4C84.3125 4.54167 84.7083 5.6875 85.125 7.4375C85.5417 9.14583 85.9167 11.1875 86.25 13.5625C86.625 15.9375 86.9792 18.5 87.3125 21.25C87.6458 24 87.9375 26.6458 88.1875 29.1875C88.4375 31.6875 88.6458 33.9583 88.8125 36C89.0208 38 89.1458 39.4583 89.1875 40.375C89.6875 40.25 90.2083 40.1458 90.75 40.0625C91.2917 39.9375 91.8125 39.875 92.3125 39.875C93.3125 39.875 94.0417 40.1875 94.5 40.8125C94.9583 41.3958 95.1875 42.1667 95.1875 43.125ZM146.062 57.375C146.062 58.25 145.75 59.1667 145.125 60.125C144.5 61.0833 143.812 61.7917 143.062 62.25C142.854 62.375 142.5 62.5 142 62.625C141.5 62.75 140.958 62.875 140.375 63C139.833 63.0833 139.292 63.1875 138.75 63.3125C138.25 63.3958 137.854 63.4583 137.562 63.5L139.062 72.75C139.521 75.625 139.854 78.5208 140.062 81.4375C140.312 84.3125 140.854 87.1667 141.688 90C141.771 90.25 141.854 90.4792 141.938 90.6875C142.021 90.8958 142.062 91.1667 142.062 91.5C142.062 92.0417 141.896 92.4583 141.562 92.75C141.271 93.0417 140.896 93.25 140.438 93.375C140.021 93.5417 139.562 93.6458 139.062 93.6875C138.562 93.7292 138.104 93.75 137.688 93.75H136.812C135.521 93.75 134.521 93.6458 133.812 93.4375C133.146 93.2292 132.625 92.875 132.25 92.375C131.875 91.875 131.625 91.25 131.5 90.5C131.375 89.7083 131.229 88.75 131.062 87.625C130.062 80 128.938 72.375 127.688 64.75C125.104 65.0833 122.5 65.3958 119.875 65.6875C117.292 65.9792 114.688 66.25 112.062 66.5L110.062 78.75C109.979 79.5 109.854 80.5208 109.688 81.8125C109.562 83.1042 109.396 84.4375 109.188 85.8125C109.021 87.1458 108.812 88.3958 108.562 89.5625C108.354 90.7292 108.104 91.5833 107.812 92.125C107.562 92.625 107.333 92.9792 107.125 93.1875C106.917 93.3958 106.521 93.5 105.938 93.5C105.188 93.5 104.438 93.3542 103.688 93.0625C102.979 92.8125 102.333 92.4375 101.75 91.9375C101.208 91.4792 100.771 90.9167 100.438 90.25C100.104 89.5833 99.9375 88.8333 99.9375 88C99.9375 87.1667 100.021 86.3333 100.188 85.5C100.396 84.6667 100.562 83.8333 100.688 83C101.146 80.25 101.562 77.5208 101.938 74.8125C102.312 72.0625 102.729 69.3333 103.188 66.625C102.896 66.5833 102.562 66.5208 102.188 66.4375C101.812 66.3125 101.438 66.1667 101.062 66C100.729 65.8333 100.438 65.625 100.188 65.375C99.9375 65.125 99.8125 64.8333 99.8125 64.5C99.8125 64.0833 99.9583 63.7083 100.25 63.375C100.583 63 100.958 62.6667 101.375 62.375C101.833 62.0417 102.292 61.7708 102.75 61.5625C103.208 61.3125 103.604 61.125 103.938 61C104.812 55.1667 105.646 49.3542 106.438 43.5625C107.229 37.7708 107.938 31.9167 108.562 26C108.729 24.4167 108.875 22.8125 109 21.1875C109.125 19.5625 109.25 17.9375 109.375 16.3125C109.542 14.6875 109.729 13.0833 109.938 11.5C110.188 9.91667 110.521 8.33333 110.938 6.75C111.312 5.25 111.938 4.04167 112.812 3.125C113.688 2.20833 114.979 1.75 116.688 1.75C117.188 1.75 117.667 1.79167 118.125 1.875C118.625 1.95833 119.062 2.125 119.438 2.375C120.521 2.91667 121.646 4.39583 122.812 6.8125C123.979 9.22917 125.146 12.1667 126.312 15.625C127.479 19.0417 128.583 22.75 129.625 26.75C130.708 30.75 131.688 34.625 132.562 38.375C133.438 42.125 134.188 45.5208 134.812 48.5625C135.438 51.5625 135.896 53.7917 136.188 55.25C137.062 55.125 137.938 55.0208 138.812 54.9375C139.688 54.8125 140.562 54.75 141.438 54.75C141.854 54.75 142.333 54.7708 142.875 54.8125C143.417 54.8542 143.917 54.9792 144.375 55.1875C144.875 55.3542 145.271 55.625 145.562 56C145.896 56.3333 146.062 56.7917 146.062 57.375ZM126.438 56.875C125.354 50.9583 124.167 45.1042 122.875 39.3125C121.625 33.4792 120.146 27.6667 118.438 21.875C117.688 28.1667 116.875 34.4167 116 40.625C115.125 46.8333 114.188 53.0417 113.188 59.25C115.438 58.9167 117.646 58.5625 119.812 58.1875C122.021 57.7708 124.229 57.3333 126.438 56.875ZM187.812 86.625C187.812 87.375 187.729 88.125 187.562 88.875C187.438 89.5833 187.188 90.2292 186.812 90.8125C186.479 91.3542 186.021 91.7917 185.438 92.125C184.854 92.4583 184.104 92.625 183.188 92.625C182.062 92.625 181.146 92.375 180.438 91.875C179.771 91.4167 179.146 90.75 178.562 89.875C177.771 88.75 177.062 87.4583 176.438 86C175.812 84.5 175.25 82.9792 174.75 81.4375C174.25 79.8542 173.771 78.2917 173.312 76.75C172.896 75.1667 172.479 73.7083 172.062 72.375C169.812 65.375 167.708 58.3958 165.75 51.4375C163.833 44.4792 161.771 37.5 159.562 30.5C159.354 39.5417 159.188 48.5417 159.062 57.5C158.979 66.4583 158.938 75.4583 158.938 84.5C158.938 84.9583 158.917 85.4792 158.875 86.0625C158.833 86.6458 158.729 87.2083 158.562 87.75C158.396 88.25 158.125 88.6875 157.75 89.0625C157.417 89.4375 156.938 89.625 156.312 89.625C154.188 89.625 152.562 89.0625 151.438 87.9375C150.354 86.7708 149.812 85.125 149.812 83C149.812 71.2917 149.833 59.6875 149.875 48.1875C149.917 36.6875 149.938 25.125 149.938 13.5V4.625C149.938 3.66667 150.104 2.875 150.438 2.25C150.812 1.58333 151.604 1.25 152.812 1.25C153.646 1.25 154.5 1.375 155.375 1.625C156.25 1.83333 157.021 2.16667 157.688 2.625C158.396 3.08333 158.958 3.6875 159.375 4.4375C159.833 5.14583 160.062 6 160.062 7C161.812 10.3333 163.271 13.7708 164.438 17.3125C165.646 20.8542 166.812 24.4167 167.938 28C169.562 33.2083 171.167 38.4167 172.75 43.625C174.333 48.8333 175.938 54.0833 177.562 59.375C177.312 51.5 177.042 43.6458 176.75 35.8125C176.5 27.9375 175.979 20.0833 175.188 12.25C174.979 10.5417 174.729 8.875 174.438 7.25C174.188 5.625 174.062 3.95833 174.062 2.25C174.062 1.375 174.354 0.791667 174.938 0.5C175.521 0.166667 176.188 0 176.938 0C178.229 0 179.333 0.104167 180.25 0.3125C181.167 0.520833 181.938 0.875 182.562 1.375C183.188 1.875 183.667 2.5625 184 3.4375C184.333 4.27083 184.604 5.33333 184.812 6.625C185.062 8.875 185.25 11.1458 185.375 13.4375C185.542 15.6875 185.688 17.9167 185.812 20.125C186.188 25.7083 186.458 31.25 186.625 36.75C186.792 42.25 186.938 47.7917 187.062 53.375C187.188 58.9167 187.333 64.4583 187.5 70C187.708 75.5 187.812 81.0417 187.812 86.625ZM246.938 91.5C246.938 92 246.688 92.4167 246.188 92.75C245.688 93.0833 245.083 93.3542 244.375 93.5625C243.708 93.7708 243.021 93.9167 242.312 94C241.646 94.0833 241.146 94.125 240.812 94.125C239.979 94.125 239.292 94.0417 238.75 93.875C238.25 93.75 237.646 93.5 236.938 93.125C236.729 93 236.229 92.4792 235.438 91.5625C234.688 90.6042 233.729 89.375 232.562 87.875C231.438 86.375 230.146 84.6667 228.688 82.75C227.271 80.8333 225.792 78.875 224.25 76.875C222.75 74.8333 221.25 72.8125 219.75 70.8125C218.292 68.7708 216.938 66.9167 215.688 65.25C214.438 63.5417 213.354 62.0625 212.438 60.8125C211.562 59.5208 210.938 58.625 210.562 58.125L210.188 58.25C210.438 63.2083 210.75 68.1667 211.125 73.125C211.542 78.0417 212.229 82.9167 213.188 87.75C213.312 88.25 213.438 88.7708 213.562 89.3125C213.729 89.8542 213.812 90.4167 213.812 91C213.812 91.9583 213.5 92.5625 212.875 92.8125C212.25 93.1042 211.562 93.25 210.812 93.25C210.396 93.25 209.896 93.2292 209.312 93.1875C208.729 93.1458 208.125 93.0625 207.5 92.9375C206.875 92.8125 206.292 92.6458 205.75 92.4375C205.25 92.2708 204.854 92.0417 204.562 91.75C203.979 91.25 203.604 90.7292 203.438 90.1875C203.312 89.6458 203.188 89 203.062 88.25C201.854 79.875 201.083 71.4792 200.75 63.0625C200.458 54.6042 200.312 46.1667 200.312 37.75C200.312 34.0833 200.333 30.4792 200.375 26.9375C200.417 23.3958 200.479 19.7917 200.562 16.125C200.062 16.0833 199.583 15.9167 199.125 15.625C198.708 15.3333 198.333 14.9792 198 14.5625C197.667 14.1042 197.396 13.6458 197.188 13.1875C197.021 12.6875 196.938 12.2083 196.938 11.75C196.938 11.2917 197.042 10.8333 197.25 10.375C197.5 9.91667 197.792 9.5 198.125 9.125C198.5 8.75 198.896 8.39583 199.312 8.0625C199.729 7.72917 200.104 7.45833 200.438 7.25V6.125C200.438 5.70833 200.438 5.22917 200.438 4.6875C200.479 4.14583 200.562 3.64583 200.688 3.1875C200.854 2.6875 201.104 2.29167 201.438 2C201.771 1.66667 202.271 1.5 202.938 1.5C203.812 1.5 204.688 1.64583 205.562 1.9375C206.438 2.22917 207.188 2.75 207.812 3.5C210.938 2.25 214.229 1.625 217.688 1.625C220.729 1.625 223.5 2.22917 226 3.4375C228.5 4.64583 230.625 6.27083 232.375 8.3125C234.167 10.3542 235.542 12.7083 236.5 15.375C237.458 18.0417 237.938 20.8333 237.938 23.75C237.938 26.875 237.354 29.9167 236.188 32.875C235.021 35.7917 233.5 38.5625 231.625 41.1875C229.75 43.8125 227.604 46.2292 225.188 48.4375C222.812 50.6042 220.396 52.5 217.938 54.125C221.854 59.3333 225.812 64.5 229.812 69.625C233.854 74.7083 237.979 79.7917 242.188 84.875C242.438 85.1667 242.812 85.6042 243.312 86.1875C243.854 86.7708 244.396 87.4167 244.938 88.125C245.479 88.7917 245.938 89.4375 246.312 90.0625C246.729 90.6875 246.938 91.1667 246.938 91.5ZM228.688 22.75C228.688 21.2083 228.417 19.6042 227.875 17.9375C227.333 16.2708 226.562 14.7708 225.562 13.4375C224.562 12.0625 223.354 10.9375 221.938 10.0625C220.562 9.1875 219.021 8.75 217.312 8.75C215.938 8.75 214.562 8.95833 213.188 9.375C211.854 9.75 210.562 10.25 209.312 10.875C209.396 17.0833 209.458 23.2917 209.5 29.5C209.583 35.7083 209.688 41.9167 209.812 48.125L210.938 48.25C213.104 47.0417 215.229 45.5208 217.312 43.6875C219.438 41.8542 221.333 39.8125 223 37.5625C224.708 35.3125 226.083 32.9375 227.125 30.4375C228.167 27.8958 228.688 25.3333 228.688 22.75Z" fill="#D3AD72"/>
</svg>
